<svg width="510" height="487" viewBox="0 0 510 487" fill="none" xmlns="http://www.w3.org/2000/svg">
<rect width="754.629" height="1.92486" transform="matrix(0.784978 -0.619523 0.520894 0.853621 -222.82 157.714)" fill="#424B5A"/>
<rect width="754.629" height="1.92486" transform="matrix(0.784978 -0.619523 0.520894 0.853621 -217.807 165.929)" fill="#424B5A"/>
<rect width="754.629" height="1.92486" transform="matrix(0.784978 -0.619523 0.520894 0.853621 -212.793 174.145)" fill="#424B5A"/>
<rect width="754.629" height="1.92486" transform="matrix(0.784978 -0.619523 0.520894 0.853621 -207.779 182.36)" fill="#424B5A"/>
<rect width="754.629" height="1.92486" transform="matrix(0.784978 -0.619523 0.520894 0.853621 -202.768 190.576)" fill="#424B5A"/>
<rect width="754.629" height="1.92486" transform="matrix(0.784978 -0.619523 0.520894 0.853621 -197.754 198.791)" fill="#424B5A"/>
<rect width="754.629" height="1.92486" transform="matrix(0.784978 -0.619523 0.520894 0.853621 -192.74 207.007)" fill="#424B5A"/>
<rect width="754.629" height="1.92486" transform="matrix(0.784978 -0.619523 0.520894 0.853621 -187.727 215.223)" fill="#424B5A"/>
<rect width="754.629" height="1.92486" transform="matrix(0.784978 -0.619523 0.520894 0.853621 -182.713 223.438)" fill="#424B5A"/>
<rect width="754.629" height="1.92486" transform="matrix(0.784978 -0.619523 0.520894 0.853621 -177.699 231.653)" fill="#424B5A"/>
<rect width="754.629" height="1.92486" transform="matrix(0.784978 -0.619523 0.520894 0.853621 -172.688 239.869)" fill="#424B5A"/>
<rect width="754.629" height="1.92486" transform="matrix(0.784978 -0.619523 0.520894 0.853621 -167.674 248.084)" fill="#424B5A"/>
<rect width="754.629" height="1.92486" transform="matrix(0.784978 -0.619523 0.520894 0.853621 -162.66 256.3)" fill="#424B5A"/>
<rect width="754.629" height="1.92486" transform="matrix(0.784978 -0.619523 0.520894 0.853621 -157.646 264.516)" fill="#424B5A"/>
<rect width="754.629" height="1.92486" transform="matrix(0.784978 -0.619523 0.520894 0.853621 -152.635 272.731)" fill="#424B5A"/>
<rect width="754.629" height="1.92486" transform="matrix(0.784978 -0.619523 0.520894 0.853621 -147.621 280.947)" fill="#424B5A"/>
<rect width="754.629" height="1.92486" transform="matrix(0.784978 -0.619523 0.520894 0.853621 -142.607 289.162)" fill="#424B5A"/>
<rect width="754.629" height="1.92486" transform="matrix(0.784978 -0.619523 0.520894 0.853621 -137.594 297.377)" fill="#424B5A"/>
<rect width="754.629" height="1.92486" transform="matrix(0.784978 -0.619523 0.520894 0.853621 -132.582 305.593)" fill="#424B5A"/>
<rect width="754.629" height="1.92486" transform="matrix(0.784978 -0.619523 0.520894 0.853621 -127.568 313.809)" fill="#424B5A"/>
<rect width="754.629" height="1.92486" transform="matrix(0.784978 -0.619523 0.520894 0.853621 -122.555 322.024)" fill="#424B5A"/>
<rect width="754.629" height="1.92486" transform="matrix(0.784978 -0.619523 0.520894 0.853621 -117.541 330.24)" fill="#424B5A"/>
<rect width="754.629" height="1.92486" transform="matrix(0.784978 -0.619523 0.520894 0.853621 -112.527 338.455)" fill="#424B5A"/>
<rect width="754.629" height="1.92486" transform="matrix(0.784978 -0.619523 0.520894 0.853621 -107.516 346.671)" fill="#424B5A"/>
<rect width="754.629" height="1.92486" transform="matrix(0.784978 -0.619523 0.520894 0.853621 -102.502 354.886)" fill="#424B5A"/>
<rect width="754.629" height="1.92486" transform="matrix(0.784978 -0.619523 0.520894 0.853621 -97.4883 363.102)" fill="#424B5A"/>
<rect width="754.629" height="1.92486" transform="matrix(0.784978 -0.619523 0.520894 0.853621 -92.4746 371.317)" fill="#424B5A"/>
<rect width="754.629" height="1.92486" transform="matrix(0.784978 -0.619523 0.520894 0.853621 -87.4609 379.533)" fill="#424B5A"/>
<rect width="754.629" height="1.92486" transform="matrix(0.784978 -0.619523 0.520894 0.853621 -82.4492 387.748)" fill="#424B5A"/>
<rect width="754.629" height="1.92486" transform="matrix(0.784978 -0.619523 0.520894 0.853621 -77.4355 395.964)" fill="#424B5A"/>
<rect width="754.629" height="1.92486" transform="matrix(0.784978 -0.619523 0.520894 0.853621 -72.4219 404.179)" fill="#424B5A"/>
<rect width="754.629" height="1.92486" transform="matrix(0.784978 -0.619523 0.520894 0.853621 -67.4082 412.395)" fill="#424B5A"/>
<rect width="754.629" height="1.92486" transform="matrix(0.784978 -0.619523 0.520894 0.853621 -62.3945 420.61)" fill="#424B5A"/>
<rect width="754.629" height="1.92486" transform="matrix(0.784978 -0.619523 0.520894 0.853621 -57.3828 428.826)" fill="#424B5A"/>
<rect width="754.629" height="1.92486" transform="matrix(0.784978 -0.619523 0.520894 0.853621 -52.3691 437.042)" fill="#424B5A"/>
<rect width="754.629" height="1.92486" transform="matrix(0.784978 -0.619523 0.520894 0.853621 -47.3555 445.257)" fill="#424B5A"/>
<rect width="754.629" height="1.92486" transform="matrix(0.784978 -0.619523 0.520894 0.853621 -42.3418 453.472)" fill="#424B5A"/>
<rect width="754.629" height="1.92486" transform="matrix(0.784978 -0.619523 0.520894 0.853621 -37.3301 461.688)" fill="#424B5A"/>
<rect width="754.629" height="1.92486" transform="matrix(0.784978 -0.619523 0.520894 0.853621 -32.3164 469.903)" fill="#424B5A"/>
<rect width="754.629" height="1.92486" transform="matrix(0.784978 -0.619523 0.520894 0.853621 -27.3027 478.119)" fill="#424B5A"/>
<rect width="754.629" height="1.92486" transform="matrix(0.784978 -0.619523 0.520894 0.853621 -22.2891 486.334)" fill="#424B5A"/>
<rect width="754.629" height="1.92486" transform="matrix(0.784978 -0.619523 0.520894 0.853621 -17.2754 494.55)" fill="#424B5A"/>
<rect width="754.629" height="1.92486" transform="matrix(0.784978 -0.619523 0.520894 0.853621 -12.2637 502.766)" fill="#424B5A"/>
<rect width="754.629" height="1.92486" transform="matrix(0.784978 -0.619523 0.520894 0.853621 -7.25 510.981)" fill="#424B5A"/>
<rect width="754.629" height="1.92486" transform="matrix(0.784978 -0.619523 0.520894 0.853621 -2.23633 519.196)" fill="#424B5A"/>
<rect width="754.629" height="1.92486" transform="matrix(0.784978 -0.619523 0.520894 0.853621 2.77734 527.412)" fill="#424B5A"/>
<rect width="754.629" height="1.92486" transform="matrix(0.784978 -0.619523 0.520894 0.853621 7.78906 535.627)" fill="#424B5A"/>
<rect width="754.629" height="1.92486" transform="matrix(0.784978 -0.619523 0.520894 0.853621 12.8027 543.843)" fill="#424B5A"/>
<rect width="754.629" height="1.92486" transform="matrix(0.784978 -0.619523 0.520894 0.853621 17.8164 552.059)" fill="#424B5A"/>
<rect width="754.629" height="1.92486" transform="matrix(0.784978 -0.619523 0.520894 0.853621 22.8301 560.274)" fill="#424B5A"/>
<rect width="754.629" height="1.92486" transform="matrix(0.784978 -0.619523 0.520894 0.853621 27.8438 568.49)" fill="#424B5A"/>
<rect width="754.629" height="1.92486" transform="matrix(0.784978 -0.619523 0.520894 0.853621 32.8555 576.705)" fill="#424B5A"/>
<rect width="754.629" height="1.92486" transform="matrix(0.784978 -0.619523 0.520894 0.853621 37.8691 584.92)" fill="#424B5A"/>
<rect width="754.629" height="1.92486" transform="matrix(0.784978 -0.619523 0.520894 0.853621 42.8828 593.137)" fill="#424B5A"/>
<rect width="754.629" height="1.92486" transform="matrix(0.784978 -0.619523 0.520894 0.853621 47.8965 601.352)" fill="#424B5A"/>
<rect width="754.629" height="1.92486" transform="matrix(0.784978 -0.619523 0.520894 0.853621 52.9102 609.567)" fill="#424B5A"/>
<rect width="754.629" height="1.92486" transform="matrix(0.784978 -0.619523 0.520894 0.853621 57.9219 617.783)" fill="#424B5A"/>
<rect width="754.629" height="1.92486" transform="matrix(0.784978 -0.619523 0.520894 0.853621 62.9355 625.998)" fill="#424B5A"/>
<rect width="754.629" height="1.92486" transform="matrix(0.784978 -0.619523 0.520894 0.853621 67.9492 634.214)" fill="#424B5A"/>
<rect width="754.629" height="1.92486" transform="matrix(0.784978 -0.619523 0.520894 0.853621 72.9629 642.43)" fill="#424B5A"/>
<rect width="754.629" height="1.92486" transform="matrix(0.784978 -0.619523 0.520894 0.853621 77.9766 650.645)" fill="#424B5A"/>
<rect width="754.629" height="1.92486" transform="matrix(0.784978 -0.619523 0.520894 0.853621 82.9883 658.86)" fill="#424B5A"/>
<rect width="754.629" height="1.92486" transform="matrix(0.784978 -0.619523 0.520894 0.853621 88.002 667.076)" fill="#424B5A"/>
<rect width="754.629" height="1.92486" transform="matrix(0.784978 -0.619523 0.520894 0.853621 93.0156 675.292)" fill="#424B5A"/>
<rect width="754.629" height="1.92486" transform="matrix(0.784978 -0.619523 0.520894 0.853621 98.0293 683.507)" fill="#424B5A"/>
<rect width="754.629" height="1.92486" transform="matrix(0.784978 -0.619523 0.520894 0.853621 103.041 691.723)" fill="#424B5A"/>
<rect width="754.629" height="1.92486" transform="matrix(0.784978 -0.619523 0.520894 0.853621 108.055 699.938)" fill="#424B5A"/>
<rect width="754.629" height="1.92486" transform="matrix(0.784978 -0.619523 0.520894 0.853621 113.068 708.154)" fill="#424B5A"/>
</svg>
